<mxfile host="drawio-plugin" modified="2024-03-29T18:51:37.794Z" agent="5.0 (X11; Linux x86_64) AppleWebKit/537.36 (KHTML, like Gecko) Chrome/111.0.0.0 Safari/537.36" etag="J0b06fsbBBIAqYkpc7sf" version="20.5.3" type="embed"><diagram id="23iRSUPoRavnBvh4doch" name="Bausteinsicht"><mxGraphModel dx="1015" dy="656" grid="1" gridSize="10" guides="1" tooltips="1" connect="1" arrows="1" fold="1" page="1" pageScale="1" pageWidth="827" pageHeight="1169" math="0" shadow="0"><root><mxCell id="0"/><mxCell id="1" parent="0"/><mxCell id="2" value="" style="shape=folder;fontStyle=1;spacingTop=10;tabWidth=40;tabHeight=14;tabPosition=left;html=1;" parent="1" vertex="1"><mxGeometry x="90" y="170" width="820" height="320" as="geometry"/></mxCell><mxCell id="16" style="edgeStyle=orthogonalEdgeStyle;rounded=0;orthogonalLoop=1;jettySize=auto;html=1;endArrow=block;endFill=0;startArrow=none;startFill=0;dashed=1;exitX=0.5;exitY=0;exitDx=0;exitDy=0;" parent="1" source="69" edge="1"><mxGeometry relative="1" as="geometry"><mxPoint x="220" y="270" as="sourcePoint"/><mxPoint x="430" y="240" as="targetPoint"/><Array as="points"><mxPoint x="220" y="240"/></Array></mxGeometry></mxCell><mxCell id="17" value="implements" style="edgeLabel;html=1;align=center;verticalAlign=middle;resizable=0;points=[];" parent="16" vertex="1" connectable="0"><mxGeometry x="-0.3333" relative="1" as="geometry"><mxPoint x="20" as="offset"/></mxGeometry></mxCell><mxCell id="22" value="&lt;p style=&quot;margin:0px;margin-top:6px;text-align:center;&quot;&gt;Buttons&lt;/p&gt;&lt;hr&gt;&lt;p style=&quot;margin:0px;margin-left:8px;&quot;&gt;+ ButtonData&lt;/p&gt;&lt;p style=&quot;margin:0px;margin-left:8px;&quot;&gt;+ processInput(butons: ButtonData)&lt;/p&gt;" style="align=left;overflow=fill;html=1;dropTarget=0;" parent="1" vertex="1"><mxGeometry x="427.5" y="330" width="202.5" height="70" as="geometry"/></mxCell><mxCell id="23" value="" style="shape=component;jettyWidth=8;jettyHeight=4;" parent="22" vertex="1"><mxGeometry x="1" width="20" height="20" relative="1" as="geometry"><mxPoint x="-24" y="4" as="offset"/></mxGeometry></mxCell><mxCell id="28" value="" style="group;rotation=-180;" parent="1" vertex="1" connectable="0"><mxGeometry x="40" y="285" width="60" height="30" as="geometry"/></mxCell><mxCell id="25" value="" style="html=1;rounded=0;rotation=-180;" parent="28" vertex="1"><mxGeometry x="30" width="30" height="30" as="geometry"/></mxCell><mxCell id="26" value="" style="endArrow=none;html=1;rounded=0;align=center;verticalAlign=top;endFill=0;labelBackgroundColor=none;endSize=2;" parent="28" source="25" target="27" edge="1"><mxGeometry relative="1" as="geometry"/></mxCell><mxCell id="27" value="" style="shape=requiredInterface;html=1;fontSize=11;align=center;fillColor=none;points=[];aspect=fixed;resizable=0;verticalAlign=bottom;labelPosition=center;verticalLabelPosition=top;flipH=1;rotation=-180;" parent="28" vertex="1"><mxGeometry y="10" width="5" height="10" as="geometry"/></mxCell><mxCell id="32" value="Some Method to send the ActorValues to the actors" style="text;html=1;strokeColor=none;fillColor=none;align=center;verticalAlign=middle;whiteSpace=wrap;rounded=0;rotation=90;horizontal=0;" parent="1" vertex="1"><mxGeometry x="-10" y="345" width="130" height="40" as="geometry"/></mxCell><mxCell id="51" style="edgeStyle=orthogonalEdgeStyle;rounded=0;orthogonalLoop=1;jettySize=auto;html=1;startArrow=none;startFill=0;endArrow=none;endFill=0;" parent="1" source="43" target="47" edge="1"><mxGeometry relative="1" as="geometry"/></mxCell><mxCell id="43" value="ActorControlInterface" style="swimlane;fontStyle=3;align=center;verticalAlign=top;childLayout=stackLayout;horizontal=1;startSize=26;horizontalStack=0;resizeParent=1;resizeParentMax=0;resizeLast=0;collapsible=1;marginBottom=0;" parent="1" vertex="1"><mxGeometry x="430" y="210" width="260" height="86" as="geometry"/></mxCell><mxCell id="45" value="" style="line;strokeWidth=1;fillColor=none;align=left;verticalAlign=middle;spacingTop=-1;spacingLeft=3;spacingRight=3;rotatable=0;labelPosition=right;points=[];portConstraint=eastwest;strokeColor=inherit;" parent="43" vertex="1"><mxGeometry y="26" width="260" height="8" as="geometry"/></mxCell><mxCell id="91" value="- getButtonDict(buttons: Buttons)" style="text;strokeColor=none;fillColor=none;align=left;verticalAlign=top;spacingLeft=4;spacingRight=4;overflow=hidden;rotatable=0;points=[[0,0.5],[1,0.5]];portConstraint=eastwest;fontStyle=1" parent="43" vertex="1"><mxGeometry y="34" width="260" height="26" as="geometry"/></mxCell><mxCell id="92" value="- transformValuesToJson(message: dict)" style="text;strokeColor=none;fillColor=none;align=left;verticalAlign=top;spacingLeft=4;spacingRight=4;overflow=hidden;rotatable=0;points=[[0,0.5],[1,0.5]];portConstraint=eastwest;fontStyle=1" parent="43" vertex="1"><mxGeometry y="60" width="260" height="26" as="geometry"/></mxCell><mxCell id="50" value="" style="group;rotation=-90;" parent="1" vertex="1" connectable="0"><mxGeometry x="530" y="150" width="60" height="30" as="geometry"/></mxCell><mxCell id="47" value="" style="html=1;rounded=0;rotation=-90;" parent="50" vertex="1"><mxGeometry x="15" y="15" width="30" height="30" as="geometry"/></mxCell><mxCell id="48" value="" style="endArrow=none;html=1;rounded=0;align=center;verticalAlign=top;endFill=0;labelBackgroundColor=none;endSize=2;" parent="50" source="47" target="49" edge="1"><mxGeometry relative="1" as="geometry"/></mxCell><mxCell id="49" value="" style="ellipse;html=1;fontSize=11;align=center;fillColor=none;points=[];aspect=fixed;resizable=0;verticalAlign=bottom;labelPosition=center;verticalLabelPosition=top;flipH=1;rotation=-90;" parent="50" vertex="1"><mxGeometry x="26" y="-15" width="8" height="8" as="geometry"/></mxCell><mxCell id="62" style="edgeStyle=orthogonalEdgeStyle;rounded=0;orthogonalLoop=1;jettySize=auto;html=1;endArrow=none;endFill=0;startArrow=diamondThin;startFill=1;" parent="1" source="60" target="22" edge="1"><mxGeometry relative="1" as="geometry"/></mxCell><mxCell id="64" value="1..n" style="edgeLabel;html=1;align=center;verticalAlign=middle;resizable=0;points=[];" parent="62" vertex="1" connectable="0"><mxGeometry x="0.2381" relative="1" as="geometry"><mxPoint x="48" y="-13" as="offset"/></mxGeometry></mxCell><mxCell id="60" value="&lt;p style=&quot;margin:0px;margin-top:6px;text-align:center;&quot;&gt;ButtonData&lt;/p&gt;&lt;hr&gt;&lt;p style=&quot;margin:0px;margin-left:8px;&quot;&gt;+ ID: int&lt;/p&gt;&lt;p style=&quot;margin:0px;margin-left:8px;&quot;&gt;+ Value: int&lt;/p&gt;" style="align=left;overflow=fill;html=1;dropTarget=0;" parent="1" vertex="1"><mxGeometry x="690" y="328.75" width="180" height="72.5" as="geometry"/></mxCell><mxCell id="61" value="" style="shape=component;jettyWidth=8;jettyHeight=4;" parent="60" vertex="1"><mxGeometry x="1" width="20" height="20" relative="1" as="geometry"><mxPoint x="-24" y="4" as="offset"/></mxGeometry></mxCell><mxCell id="88" style="edgeStyle=orthogonalEdgeStyle;rounded=0;orthogonalLoop=1;jettySize=auto;html=1;endArrow=none;endFill=0;" parent="1" source="69" target="25" edge="1"><mxGeometry relative="1" as="geometry"/></mxCell><mxCell id="69" value="ActorController&#10;" style="swimlane;fontStyle=1;align=center;verticalAlign=top;childLayout=stackLayout;horizontal=1;startSize=26;horizontalStack=0;resizeParent=1;resizeParentMax=0;resizeLast=0;collapsible=1;marginBottom=0;" parent="1" vertex="1"><mxGeometry x="130" y="270" width="190" height="60" as="geometry"/></mxCell><mxCell id="70" value="- __transmitterMethod" style="text;strokeColor=none;fillColor=none;align=left;verticalAlign=top;spacingLeft=4;spacingRight=4;overflow=hidden;rotatable=0;points=[[0,0.5],[1,0.5]];portConstraint=eastwest;" parent="69" vertex="1"><mxGeometry y="26" width="190" height="26" as="geometry"/></mxCell><mxCell id="71" value="" style="line;strokeWidth=1;fillColor=none;align=left;verticalAlign=middle;spacingTop=-1;spacingLeft=3;spacingRight=3;rotatable=0;labelPosition=right;points=[];portConstraint=eastwest;strokeColor=inherit;" parent="69" vertex="1"><mxGeometry y="52" width="190" height="8" as="geometry"/></mxCell><mxCell id="84" style="edgeStyle=orthogonalEdgeStyle;rounded=0;orthogonalLoop=1;jettySize=auto;html=1;endArrow=block;endFill=0;dashed=1;exitX=0;exitY=0.5;exitDx=0;exitDy=0;" parent="1" source="22" target="77" edge="1"><mxGeometry relative="1" as="geometry"><mxPoint x="320" y="430" as="sourcePoint"/><Array as="points"><mxPoint x="340" y="365"/><mxPoint x="340" y="440"/></Array></mxGeometry></mxCell><mxCell id="85" value="implements" style="edgeLabel;html=1;align=center;verticalAlign=middle;resizable=0;points=[];" parent="84" vertex="1" connectable="0"><mxGeometry x="0.2567" y="3" relative="1" as="geometry"><mxPoint x="-3" y="-16" as="offset"/></mxGeometry></mxCell><mxCell id="77" value="ControlDevice" style="swimlane;fontStyle=3;align=center;verticalAlign=top;childLayout=stackLayout;horizontal=1;startSize=26;horizontalStack=0;resizeParent=1;resizeParentMax=0;resizeLast=0;collapsible=1;marginBottom=0;" parent="1" vertex="1"><mxGeometry x="433.75" y="410" width="190" height="60" as="geometry"/></mxCell><mxCell id="79" value="" style="line;strokeWidth=1;fillColor=none;align=left;verticalAlign=middle;spacingTop=-1;spacingLeft=3;spacingRight=3;rotatable=0;labelPosition=right;points=[];portConstraint=eastwest;strokeColor=inherit;" parent="77" vertex="1"><mxGeometry y="26" width="190" height="8" as="geometry"/></mxCell><mxCell id="81" value="+ getButtonDict(buttons: Buttons)" style="text;strokeColor=none;fillColor=none;align=left;verticalAlign=top;spacingLeft=4;spacingRight=4;overflow=hidden;rotatable=0;points=[[0,0.5],[1,0.5]];portConstraint=eastwest;" parent="77" vertex="1"><mxGeometry y="34" width="190" height="26" as="geometry"/></mxCell><mxCell id="82" style="edgeStyle=orthogonalEdgeStyle;rounded=0;orthogonalLoop=1;jettySize=auto;html=1;endArrow=open;endFill=0;" parent="1" source="70" target="22" edge="1"><mxGeometry relative="1" as="geometry"><Array as="points"><mxPoint x="250" y="360"/></Array></mxGeometry></mxCell><mxCell id="83" value="1" style="edgeLabel;html=1;align=center;verticalAlign=middle;resizable=0;points=[];" parent="82" vertex="1" connectable="0"><mxGeometry x="-0.7515" relative="1" as="geometry"><mxPoint x="10" y="-9" as="offset"/></mxGeometry></mxCell><mxCell id="90" value="For every Object that is being delivered to this ActorController, the ac" style="text;html=1;strokeColor=none;fillColor=none;align=center;verticalAlign=middle;whiteSpace=wrap;rounded=0;" parent="1" vertex="1"><mxGeometry x="170" y="50" width="270" height="80" as="geometry"/></mxCell></root></mxGraphModel></diagram></mxfile>